<?xml version="1.0" encoding="UTF-8"?>
<svg width="40" height="40" viewBox="0 0 40 40" fill="none" xmlns="http://www.w3.org/2000/svg">
  <rect width="40" height="40" rx="8" fill="#4F46E5"/>
  <path d="M20 10C14.477 10 10 14.477 10 20C10 25.523 14.477 30 20 30C25.523 30 30 25.523 30 20C30 14.477 25.523 10 20 10ZM20 28C15.582 28 12 24.418 12 20C12 15.582 15.582 12 20 12C24.418 12 28 15.582 28 20C28 24.418 24.418 28 20 28Z" fill="white"/>
  <path d="M20 14C17.791 14 16 15.791 16 18C16 20.209 17.791 22 20 22C22.209 22 24 20.209 24 18C24 15.791 22.209 14 20 14ZM20 20C18.895 20 18 19.105 18 18C18 16.895 18.895 16 20 16C21.105 16 22 16.895 22 18C22 19.105 21.105 20 20 20Z" fill="white"/>
  <path d="M20 24C17.791 24 16 25.791 16 28H24C24 25.791 22.209 24 20 24Z" fill="white"/>
</svg> 